# xmcd
#
# Track frame offsets:
#	150
#	16795
#	25753
#	40370
#	74765
#	96408
#	115783
#	128498
#	157280
#	211543
#	222163
#	251020
#	260423
#	276253
#
# Disc length: 3923 seconds
#
# Revision: 1
# Processed by: cddbd v1.4PL0 Copyright (c) Steve Scherf et al.
# Submitted via: audiograbber 1.81.03
#
DISCID=c90f510e
DTITLE=Various Artist - Performance Black Velvet
DYEAR=1990
DGENRE=Blues
TTITLE0=Billie Holiday - I Cover The Waterfront
TTITLE1=Billie Holiday - Lover Come Back To Me
TTITLE2=Billie Holiday - Porgy
TTITLE3=Carmen McRea - New York State of Mind
TTITLE4=Carmen McRea - The Masquerade is Over
TTITLE5=Carmen McRea - I'm Coming Home
TTITLE6=Nina Simone - Ain't Got No/I Got Life
TTITLE7=Nina Simone - Young, Gifted and Black
TTITLE8=Nina Simone - Gin House Blues
TTITLE9=Gladys Knight - One Mmore Lonely Night
TTITLE10=Gladys Knight - You and Me Against the World
TTITLE11=Gladys Knight - Every Beat of My Heart
TTITLE12=Mary Wells - My Guy
TTITLE13=Mary Wells - Oh Little Boy
EXTD=
EXTT0=
EXTT1=
EXTT2=
EXTT3=
EXTT4=
EXTT5=
EXTT6=
EXTT7=
EXTT8=
EXTT9=
EXTT10=
EXTT11=
EXTT12=
EXTT13=
PLAYORDER=
